# xmcd
#
# Track frame offsets:
#       150
#       14610
#       30365
#       46900
#       65517
#       78129
#       93025
#       106912
#       121317
#       136592
#       148360
#       160992
#       173917
#
# Disc length: 2486 seconds
#
# Revision: 1
# Processed by: cddbd v1.5.1PL0 Copyright (c) Steve Scherf et al.
# Submitted via: CD-DA_X-Tractor v0.24
#
DISCID=9f09b40d
DTITLE=Johnny Bush - Talk to my Heart
DYEAR=1998
DGENRE=Country
TTITLE0=Please Talk To My Heart
TTITLE1=A Moment Isn't Very Long
TTITLE2=Any Fool Could See
TTITLE3=This House Has No Doors
TTITLE4=Neon Nightmare
TTITLE5=The Least I Can Do Is Try
TTITLE6=The Cheatin' Line
TTITLE7=It Sure Feels Good
TTITLE8=The Winds Of Change
TTITLE9=The Bottle, Your Memory and Me
TTITLE10=The Sound A Breaking Heart Makes
TTITLE11=Deep In Love And Burried In The Blues
TTITLE12=As Long As There's Women Like You
EXTD=
EXTT0=
EXTT1=
EXTT2=
EXTT3=
EXTT4=
EXTT5=
EXTT6=
EXTT7=
EXTT8=
EXTT9=
EXTT10=
EXTT11=
EXTT12=
PLAYORDER=
